<svg width="64" height="64" viewBox="0 0 64 64" fill="none" xmlns="http://www.w3.org/2000/svg">
  <rect width="64" height="64" rx="18" fill="#0B1F1B"/>
  <path d="M29.75 12.85c1.02-1.78 3.57-1.78 4.6 0l4.64 8.02 2.35-1.36c1.1-.64 2.39.34 2.1 1.58l-2.05 8.83a1.5 1.5 0 0 1-1.68 1.14l-8.95-1.32c-1.26-.18-1.63-1.75-.53-2.39l2.2-1.27-2.67-4.63-4.07 7.05-6.2-3.58 10.26-12.07Z" fill="url(#paint0_linear)"/>
  <path d="M16.96 44.04c-2.05 0-3.33-2.22-2.3-4l4.64-8.03-2.35-1.36c-1.1-.63-.73-2.2.53-2.39l8.95-1.31a1.5 1.5 0 0 1 1.68 1.13l2.05 8.84c.29 1.24-1 2.21-2.1 1.58l-2.2-1.27-2.67 4.63h8.14v7.16l-14.37-4.98Z" fill="url(#paint1_linear)"/>
  <path d="M49.35 40.04c1.03 1.78-.25 4-2.3 4h-9.28v2.72c0 1.27-1.52 1.86-2.33.88l-5.78-6.99a1.5 1.5 0 0 1 0-1.91l5.78-6.99c.81-.98 2.33-.39 2.33.88v2.54h5.34l-4.07-7.04 6.2-3.58 4.11 15.49Z" fill="url(#paint2_linear)"/>
  <circle cx="32" cy="32" r="6.5" fill="#F8FFFC" fill-opacity=".95"/>
  <defs>
    <linearGradient id="paint0_linear" x1="19.49" y1="11.52" x2="43.49" y2="31.09" gradientUnits="userSpaceOnUse">
      <stop stop-color="#5EEAD4"/>
      <stop offset="1" stop-color="#22C55E"/>
    </linearGradient>
    <linearGradient id="paint1_linear" x1="13.72" y1="26.93" x2="33.65" y2="50.4" gradientUnits="userSpaceOnUse">
      <stop stop-color="#38BDF8"/>
      <stop offset="1" stop-color="#14B8A6"/>
    </linearGradient>
    <linearGradient id="paint2_linear" x1="29.3" y1="24.55" x2="51.37" y2="45.43" gradientUnits="userSpaceOnUse">
      <stop stop-color="#84CC16"/>
      <stop offset="1" stop-color="#2563EB"/>
    </linearGradient>
  </defs>
</svg>
